<svg xmlns="http://www.w3.org/2000/svg" xmlns:xlink="http://www.w3.org/1999/xlink" width="24.481" height="24.571" viewBox="0 0 24.481 24.571"><defs><clipPath id="a"><rect width="24.481" height="24.571" fill="#fff"/></clipPath></defs><g clip-path="url(#a)"><path d="M2.32.714A6.292,6.292,0,0,1,6.9.214a2.958,2.958,0,0,1,1.84,1.4l1.377,2.4A3.833,3.833,0,0,1,8.843,9.156l-1.212.77a1.089,1.089,0,0,0-.571,1.189,10.473,10.473,0,0,0,2.32,3.951,1.106,1.106,0,0,0,1.377.075l.67-.391a3.835,3.835,0,0,1,5.277,1.439l1.232,2.2a2.824,2.824,0,0,1,.186,2.356,6,6,0,0,1-3.014,3.4,4.432,4.432,0,0,1-4.423-.363,24.947,24.947,0,0,1-7.573-8.406A20.355,20.355,0,0,1,.006,4.55,4.4,4.4,0,0,1,2.32.714" transform="translate(0 0.001)" fill="#fff"/><path d="M11.1.12a.767.767,0,1,0-.745,1.34l.589.327a13.037,13.037,0,0,1,6.641,10.1l.049.483a.767.767,0,1,0,1.526-.153l-.049-.482A14.574,14.574,0,0,0,11.69.446Z" transform="translate(5.317 0.013)" fill="#fff"/><path d="M9.571,2.9a.765.765,0,0,1,1.052-.262l.19.113a9.97,9.97,0,0,1,4.7,6.909l.069.409a.767.767,0,0,1-1.512.252L14,9.908a8.443,8.443,0,0,0-3.98-5.846l-.192-.113A.768.768,0,0,1,9.571,2.9" transform="translate(5.05 1.347)" fill="#fff"/></g></svg>