<svg xmlns="http://www.w3.org/2000/svg" width="19.374" height="19.374" viewBox="0 0 19.374 19.374"><path d="M7.812,19.5a1.937,1.937,0,1,0,1.937,1.937A1.929,1.929,0,0,0,7.812,19.5M2,4V5.937H3.937L7.42,13.285,6.112,15.658a1.969,1.969,0,0,0-.237.935A1.937,1.937,0,0,0,7.812,18.53H19.436V16.593H8.224a.24.24,0,0,1-.242-.242.23.23,0,0,1,.029-.116l.867-1.579h7.217a1.944,1.944,0,0,0,1.7-1l3.463-6.287a.936.936,0,0,0,.121-.465.968.968,0,0,0-.969-.969H6.083L5.163,4ZM17.5,19.5a1.937,1.937,0,1,0,1.937,1.937A1.929,1.929,0,0,0,17.5,19.5" transform="translate(-2 -4)"/></svg>