<svg xmlns="http://www.w3.org/2000/svg" width="56.885" height="39.572" viewBox="0 0 56.885 39.572">
  <path id="credit_card_icon" d="M52.938,47.572H5.947A4.947,4.947,0,0,1,1,42.626V12.947A4.947,4.947,0,0,1,5.947,8H52.938a4.947,4.947,0,0,1,4.947,4.947V42.626A4.947,4.947,0,0,1,52.938,47.572ZM3.473,24.076H55.412V19.13H3.473Zm51.938-11.13a2.474,2.474,0,0,0-2.473-2.473H5.947a2.474,2.474,0,0,0-2.473,2.473v3.71H55.412Zm0,13.6H3.473V42.626A2.474,2.474,0,0,0,5.947,45.1H52.938a2.474,2.474,0,0,0,2.473-2.473Zm-23.5,7.42H26.969a1.237,1.237,0,1,1,0-2.473h4.947a1.237,1.237,0,1,1,0,2.473Zm-11.13,0H9.656a1.237,1.237,0,1,1,0-2.473h11.13a1.237,1.237,0,1,1,0,2.473Zm-11.13,3.71h7.42a1.237,1.237,0,1,1,0,2.473H9.656a1.237,1.237,0,1,1,0-2.473Z" transform="translate(-1 -8)" fill-rule="evenodd"/>
</svg>
