<svg xmlns="http://www.w3.org/2000/svg" width="17.778" height="16" viewBox="0 0 17.778 16"><path d="M-120.137,730.828s-5.5,4.747-8.572,7.317a.926.926,0,0,0-.317.683.888.888,0,0,0,.889.889h1.778v6.222a.888.888,0,0,0,.889.889h2.667a.889.889,0,0,0,.889-.889v-3.556h3.556v3.556a.889.889,0,0,0,.889.889h2.667a.888.888,0,0,0,.889-.889v-6.222h1.778a.888.888,0,0,0,.889-.889.871.871,0,0,0-.34-.683C-114.64,735.575-120.137,730.828-120.137,730.828Z" transform="translate(129.026 -730.828)" fill="#17171A"/></svg>