<svg xmlns="http://www.w3.org/2000/svg" width="35.547" height="39.5" viewBox="0 0 35.547 39.5">
  <g id="location_live_icon" transform="translate(-3.008 -2.024)">
    <path id="Path_58" data-name="Path 58" d="M10.581,2.028a1.484,1.484,0,0,0-.195,2.961A20.777,20.777,0,0,1,29.729,24.338a1.484,1.484,0,0,0,2.961-.194A23.745,23.745,0,0,0,10.581,2.028Z" transform="translate(5.862)" fill="#fff"/>
    <path id="Path_59" data-name="Path 59" d="M9.6,17.824A2.226,2.226,0,1,0,7.372,15.6,2.226,2.226,0,0,0,9.6,17.824Z" transform="translate(4.269 11.103)" fill="#fff"/>
    <path id="Path_60" data-name="Path 60" d="M12.837,34.221l-.769-.763-1.835-1.823c-1.421-1.412-3.082-3.065-4.04-4.023a10.874,10.874,0,1,1,15.378,0c-.879.879-2.541,2.532-3.981,3.964L14.929,34.22A1.485,1.485,0,0,1,12.837,34.221ZM8.292,14.332a7.906,7.906,0,0,0,0,11.181c.954.954,2.613,2.6,4.034,4.016l1.557,1.547L15.5,29.471c1.441-1.432,3.1-3.082,3.975-3.957A7.906,7.906,0,0,0,8.292,14.332Z" transform="translate(0 6.873)" fill="#fff"/>
    <path id="Path_61" data-name="Path 61" d="M10.618,5.506a1.484,1.484,0,1,0-.267,2.956,13.823,13.823,0,0,1,12.5,12.5,1.484,1.484,0,0,0,2.956-.268A16.791,16.791,0,0,0,10.618,5.506Z" transform="translate(5.863 3.4)" fill="#fff"/>
  </g>
</svg>
