<?xml version="1.0" encoding="utf-8"?>
<!-- Generator: Adobe Illustrator 26.0.1, SVG Export Plug-In . SVG Version: 6.00 Build 0)  -->
<svg version="1.1" id="Layer_1" xmlns="http://www.w3.org/2000/svg" xmlns:xlink="http://www.w3.org/1999/xlink" x="0px" y="0px"
	 viewBox="0 0 18.5 18.5" style="enable-background:new 0 0 18.5 18.5;" xml:space="preserve">
<g transform="translate(0.5 -735.019)">
	<path d="M17,737.3c0-1-0.8-1.8-1.8-1.8H2.4c-1,0-1.8,0.8-1.8,1.8L0,751.2v0c0,1,0.8,1.8,1.8,1.8h13.9c1,0,1.8-0.8,1.8-1.8v0
		L17,737.3z M12.2,741.7c0,1.9-1.5,3.4-3.4,3.4c-0.6,0-1.2-0.1-1.7-0.5c-1-0.6-1.6-1.7-1.7-2.9v-2.4c0-0.4,0.3-0.8,0.8-0.8
		c0,0,0,0,0,0c0.4,0,0.8,0.4,0.8,0.8v2.3c0,1,0.8,1.8,1.8,1.8c0,0,0,0,0,0c1,0,1.8-0.8,1.8-1.8v-2.3c0-0.4,0.3-0.8,0.8-0.8
		c0.4,0,0.8,0.3,0.8,0.8V741.7z"/>
</g>
</svg>
