<svg xmlns="http://www.w3.org/2000/svg" xmlns:xlink="http://www.w3.org/1999/xlink" width="30" height="22" viewBox="0 0 30 22"><defs><clipPath id="a"><rect width="30" height="22" fill="#fff"/></clipPath></defs><g clip-path="url(#a)"><path d="M1,6A1,1,0,0,1,0,5V1A1,1,0,0,1,1,0H5A1,1,0,0,1,5,2H2V5A1,1,0,0,1,1,6" fill="#fff"/><path d="M29,6a1,1,0,0,1-1-1V2H25a1,1,0,0,1,0-2h4a1,1,0,0,1,1,1V5a1,1,0,0,1-1,1" fill="#fff"/><path d="M5,22H1a1,1,0,0,1-1-1V17a1,1,0,0,1,2,0v3H5a1,1,0,0,1,0,2" fill="#fff"/><path d="M29,22H25a1,1,0,0,1,0-2h3V17a1,1,0,0,1,2,0v4a1,1,0,0,1-1,1" fill="#fff"/><path d="M5,11a1,1,0,0,1-1-1V4A1,1,0,0,1,6,4v6a1,1,0,0,1-1,1" fill="#fff"/><path d="M10,11a1,1,0,0,1-1-1V4a1,1,0,0,1,2,0v6a1,1,0,0,1-1,1" fill="#fff"/><path d="M25,11a1,1,0,0,1-1-1V4a1,1,0,0,1,2,0v6a1,1,0,0,1-1,1" fill="#fff"/><path d="M20,11a1,1,0,0,1-1-1V4a1,1,0,0,1,2,0v6a1,1,0,0,1-1,1" fill="#fff"/><path d="M15,11a1,1,0,0,1-1-1V4a1,1,0,0,1,2,0v6a1,1,0,0,1-1,1" fill="#fff"/><path d="M29,14H1a1,1,0,0,1,0-2H29a1,1,0,0,1,0,2" fill="#fff"/><path d="M5,19a1,1,0,0,1-1-1V16a1,1,0,0,1,2,0v2a1,1,0,0,1-1,1" fill="#fff"/><path d="M10,18a1,1,0,0,1-1-1V16a1,1,0,0,1,2,0v1a1,1,0,0,1-1,1" fill="#fff"/><path d="M25,19a1,1,0,0,1-1-1V16a1,1,0,0,1,2,0v2a1,1,0,0,1-1,1" fill="#fff"/><path d="M20,18a1,1,0,0,1-1-1V16a1,1,0,0,1,2,0v1a1,1,0,0,1-1,1" fill="#fff"/><path d="M15,18a1,1,0,0,1-1-1V16a1,1,0,0,1,2,0v1a1,1,0,0,1-1,1" fill="#fff"/></g></svg>