<svg xmlns="http://www.w3.org/2000/svg" width="18" height="14.824" viewBox="0 0 18 14.824"><path d="M-40.85,736.417a3.7,3.7,0,0,0,3.548,2.647,3.7,3.7,0,0,0,3.547-2.647h7.041a1.059,1.059,0,0,0,1.059-1.059,1.059,1.059,0,0,0-1.059-1.058h-7.041a3.7,3.7,0,0,0-3.547-2.647A3.7,3.7,0,0,0-40.85,734.3h-1.217a1.059,1.059,0,0,0-1.059,1.058,1.059,1.059,0,0,0,1.059,1.059Zm3.548-2.647a1.588,1.588,0,0,1,1.588,1.588,1.588,1.588,0,0,1-1.588,1.588,1.588,1.588,0,0,1-1.588-1.588,1.56,1.56,0,0,1,1.53-1.588Zm11.117,7.941H-27.4a3.7,3.7,0,0,0-3.547-2.647A3.7,3.7,0,0,0-34.5,741.71h-7.041a1.059,1.059,0,0,0-1.059,1.059,1.059,1.059,0,0,0,1.059,1.059H-34.5a3.7,3.7,0,0,0,3.547,2.647,3.7,3.7,0,0,0,3.547-2.647h1.218a1.059,1.059,0,0,0,1.059-1.059A1.059,1.059,0,0,0-26.185,741.71Zm-4.765,2.647a1.588,1.588,0,0,1-1.588-1.588,1.588,1.588,0,0,1,1.588-1.588,1.588,1.588,0,0,1,1.588,1.588,1.559,1.559,0,0,1-1.531,1.588Z" transform="translate(43.126 -731.652)"/></svg>