<svg xmlns="http://www.w3.org/2000/svg" width="14.924" height="14.906" viewBox="0 0 14.924 14.906">
  <path id="star" d="M2.99,14.58a1.716,1.716,0,0,1-.678-1.653L2.821,9.81a.331.331,0,0,0-.1-.292L.5,7.317A1.715,1.715,0,0,1,.083,5.582,1.626,1.626,0,0,1,1.4,4.431l3-.468a.313.313,0,0,0,.244-.183L6,.948A1.6,1.6,0,0,1,8.912.941l1.354,2.825a.318.318,0,0,0,.244.183l3.009.447A1.648,1.648,0,0,1,14.84,5.549a1.722,1.722,0,0,1-.407,1.734L12.387,9.491a.345.345,0,0,0-.087.3l.521,3.11a1.725,1.725,0,0,1-.678,1.66,1.578,1.578,0,0,1-1.714.136l-2.71-1.463a.3.3,0,0,0-.305,0L4.7,14.709a1.639,1.639,0,0,1-.766.2A1.559,1.559,0,0,1,2.99,14.58ZM1.452,5.864l.138-.083A.326.326,0,0,0,1.452,5.864Z" transform="translate(0 0.001)" fill="#cc8421"/>
</svg>
