<svg xmlns="http://www.w3.org/2000/svg" width="14.924" height="14.906" viewBox="0 0 14.924 14.906">
  <path id="star_border" d="M15.41,8.283a1.721,1.721,0,0,0,.407-1.734A1.646,1.646,0,0,0,14.5,5.4L11.487,4.95a.318.318,0,0,1-.244-.183L9.889,1.942A1.619,1.619,0,0,0,8.445,1h0a1.606,1.606,0,0,0-1.47.949L5.62,4.781a.312.312,0,0,1-.244.183l-3,.467A1.626,1.626,0,0,0,1.06,6.583a1.714,1.714,0,0,0,.413,1.734l2.229,2.2a.332.332,0,0,1,.095.291l-.508,3.117a1.714,1.714,0,0,0,.678,1.653,1.558,1.558,0,0,0,.949.325,1.626,1.626,0,0,0,.766-.2l2.71-1.477a.3.3,0,0,1,.3,0l2.71,1.463a1.579,1.579,0,0,0,1.714-.136A1.728,1.728,0,0,0,13.8,13.9l-.522-3.11a.346.346,0,0,1,.088-.3Zm-3.09,1.24a1.748,1.748,0,0,0-.488,1.5l.522,3.117a.325.325,0,0,1-.122.325.312.312,0,0,1-.339,0L9.184,13a1.585,1.585,0,0,0-1.518,0l-2.71,1.477a.312.312,0,0,1-.339,0,.318.318,0,0,1-.129-.325l.569-3.11a1.748,1.748,0,0,0-.467-1.5L2.4,7.342A.332.332,0,0,1,2.348,7a.325.325,0,0,1,.264-.23l3-.461a1.626,1.626,0,0,0,1.192-.928L8.161,2.545a.316.316,0,0,1,.576-.007L10.092,5.37a1.646,1.646,0,0,0,1.226.921l3.008.447a.3.3,0,0,1,.257.224.325.325,0,0,1-.081.346Z" transform="translate(-0.977 -1)" fill="#cc8421"/>
</svg>
