<svg xmlns="http://www.w3.org/2000/svg" xmlns:xlink="http://www.w3.org/1999/xlink" width="256.468" height="201.201" viewBox="0 0 256.468 201.201">
  <defs>
    <clipPath id="clip-path">
      <rect id="Rectangle_269" data-name="Rectangle 269" width="43.952" height="44.09" fill="#02add6"/>
    </clipPath>
    <clipPath id="clip-path-2">
      <rect id="Rectangle_269-2" data-name="Rectangle 269" width="25.829" height="25.91" fill="#02add6"/>
    </clipPath>
  </defs>
  <g id="success" transform="translate(-105.532 -149.422)">
    <g id="Group_9829" data-name="Group 9829" transform="translate(-231.578 -356.578)">
      <path id="Path_2999" data-name="Path 2999" d="M89.578,0A89.578,89.578,0,1,1,0,89.578,89.578,89.578,0,0,1,89.578,0Z" transform="translate(372 506)" fill="#02add6"/>
      <path id="Path_105" data-name="Path 105" d="M775.146,879.43q4.551-4.209,9.1-8.416c1.77-1.642,3.547-3.279,5.271-4.969.572-.562.874-.572,1.436.034,7.1,7.621,14.252,15.2,21.35,22.832.668.72.98.734,1.707.058q26.232-24.386,52.517-48.708c.267-.245.472-.848,1.034-.236,4.545,4.958,9.112,9.9,13.7,14.879q-6.3,5.839-12.551,11.629-26.5,24.543-53,49.1a31.794,31.794,0,0,0-3.479,3.344h-.208a9.372,9.372,0,0,1-2.356-2.15c-1.675-1.879-3.448-3.666-5.146-5.523-3.56-3.889-7.255-7.652-10.785-11.573-1.085-1.2-2.223-2.36-3.344-3.525-2.751-2.855-5.412-5.8-8.162-8.651-2.1-2.185-4.114-4.459-6.24-6.623a6.52,6.52,0,0,1-.848-1.292Z" transform="translate(-364.757 -279.2)" fill="#fff"/>
    </g>
    <g id="Group_9831" data-name="Group 9831" transform="translate(118.446 306.533)">
      <g id="Group_9830" data-name="Group 9830" clip-path="url(#clip-path)">
        <path id="Path_3000" data-name="Path 3000" d="M21.765,44.09A22.52,22.52,0,0,0,0,22.04c.853-.118,1.986-.214,3.092-.443a24.636,24.636,0,0,0,3.3-.914A23.153,23.153,0,0,0,9.519,19.3a23.021,23.021,0,0,0,2.891-1.84,23.516,23.516,0,0,0,2.608-2.264,23.169,23.169,0,0,0,2.229-2.607,23.206,23.206,0,0,0,1.818-2.9,23.053,23.053,0,0,0,1.366-3.138,24.761,24.761,0,0,0,.886-3.3c.223-1.115.318-2.255.45-3.241a22.717,22.717,0,0,0,6.766,15.259A22.908,22.908,0,0,0,43.952,22.05,23.231,23.231,0,0,0,21.765,44.09" fill="#02add6"/>
      </g>
    </g>
    <g id="Group_9832" data-name="Group 9832" transform="translate(105.532 286.623)">
      <g id="Group_9830-2" data-name="Group 9830" clip-path="url(#clip-path-2)">
        <path id="Path_3000-2" data-name="Path 3000" d="M12.79,25.91A13.234,13.234,0,0,0,0,12.952c.5-.069,1.167-.126,1.817-.26a14.478,14.478,0,0,0,1.937-.537,13.606,13.606,0,0,0,1.839-.814,13.528,13.528,0,0,0,1.7-1.081,13.82,13.82,0,0,0,1.533-1.33A13.615,13.615,0,0,0,10.136,7.4,13.637,13.637,0,0,0,11.2,5.69a13.547,13.547,0,0,0,.8-1.844A14.551,14.551,0,0,0,12.527,1.9c.131-.655.187-1.325.264-1.9a13.35,13.35,0,0,0,3.976,8.967,13.462,13.462,0,0,0,9.061,3.991A13.652,13.652,0,0,0,12.79,25.91" fill="#02add6"/>
      </g>
    </g>
    <g id="Group_9833" data-name="Group 9833" transform="translate(336.171 180.623)">
      <g id="Group_9830-3" data-name="Group 9830" clip-path="url(#clip-path-2)">
        <path id="Path_3000-3" data-name="Path 3000" d="M12.79,25.91A13.234,13.234,0,0,0,0,12.952c.5-.069,1.167-.126,1.817-.26a14.478,14.478,0,0,0,1.937-.537,13.606,13.606,0,0,0,1.839-.814,13.528,13.528,0,0,0,1.7-1.081,13.82,13.82,0,0,0,1.533-1.33A13.615,13.615,0,0,0,10.136,7.4,13.637,13.637,0,0,0,11.2,5.69a13.547,13.547,0,0,0,.8-1.844A14.551,14.551,0,0,0,12.527,1.9c.131-.655.187-1.325.264-1.9a13.35,13.35,0,0,0,3.976,8.967,13.462,13.462,0,0,0,9.061,3.991A13.652,13.652,0,0,0,12.79,25.91" fill="#02add6"/>
      </g>
    </g>
  </g>
</svg>
