<svg xmlns="http://www.w3.org/2000/svg" width="56.885" height="50.694" viewBox="0 0 56.885 50.694">
  <path id="wallet_icon" d="M57.885,48.517h0A6.182,6.182,0,0,1,51.7,54.7H7.183A6.182,6.182,0,0,1,1,48.517V12.655A4.947,4.947,0,0,1,5.947,7.708H30.891L40.906,4.08a1.225,1.225,0,0,1,1.568.728l1.055,2.9h4.463a4.947,4.947,0,0,1,4.947,4.947v2.473h0a4.947,4.947,0,0,1,4.947,4.947ZM5.947,10.182h0a2.473,2.473,0,1,0,0,4.947H10.44c.016-.006.026-.02.042-.026l13.581-4.921Zm35.959.224L40.592,6.79h0l-2.536.919h0l-6.819,2.473h-.012L17.576,15.128H43.622Zm8.56,2.249a2.474,2.474,0,0,0-2.473-2.473H44.427l1.8,4.947h4.24ZM52.938,17.6H5.947a4.891,4.891,0,0,1-2.473-.686v31.6a3.71,3.71,0,0,0,3.71,3.71H51.7a3.71,3.71,0,0,0,3.71-3.71V39.861H50.465a4.947,4.947,0,0,1,0-9.893h4.947V20.075A2.474,2.474,0,0,0,52.938,17.6Zm2.473,19.786V32.441H50.465a2.473,2.473,0,0,0,0,4.947Zm-4.947-3.71h2.473v2.473H50.465Z" transform="translate(-1 -4.006)" fill-rule="evenodd"/>
</svg>
