<svg xmlns="http://www.w3.org/2000/svg" width="28.556" height="28.557" viewBox="0 0 28.556 28.557"><g transform="translate(1358.113 -1530)"><g transform="translate(-1358.113 1530)"><path d="M371.915,135.59a14.155,14.155,0,0,0-22.272,17.076L347.635,160l7.5-1.97a14.109,14.109,0,0,0,6.763,1.721h.006a14.061,14.061,0,0,0,10.008-24.158m-10.008,21.774a11.741,11.741,0,0,1-5.992-1.638l-.427-.255-4.449,1.166,1.186-4.341-.281-.446A11.784,11.784,0,1,1,373.8,145.6a11.893,11.893,0,0,1-11.894,11.767" transform="translate(-347.635 -131.44)" fill="#f7f7f7"/><path d="M377.139,158.017c-.351-.178-2.091-1.033-2.416-1.147s-.561-.178-.8.178-.911,1.147-1.122,1.389-.414.268-.765.089a9.621,9.621,0,0,1-4.812-4.207c-.363-.624.363-.58,1.039-1.931a.654.654,0,0,0-.032-.618c-.089-.178-.8-1.919-1.09-2.626-.287-.688-.58-.593-.8-.605s-.44-.012-.676-.012a1.31,1.31,0,0,0-.943.439,3.973,3.973,0,0,0-1.237,2.952,6.926,6.926,0,0,0,1.441,3.659,15.8,15.8,0,0,0,6.043,5.341c2.243.969,3.123,1.052,4.245.886a3.621,3.621,0,0,0,2.384-1.683,2.956,2.956,0,0,0,.2-1.683c-.083-.159-.319-.249-.669-.421" transform="translate(-356.417 -140.902)" fill="#f7f7f7"/></g></g></svg>