<svg xmlns="http://www.w3.org/2000/svg" xmlns:xlink="http://www.w3.org/1999/xlink" width="106.578" height="45.945" viewBox="0 0 106.578 45.945">
  <defs>
    <clipPath id="clip-path">
      <rect id="Rectangle_282" data-name="Rectangle 282" width="106.578" height="45.945" fill="#343434"/>
    </clipPath>
  </defs>
  <g id="app_logo" clip-path="url(#clip-path)">
    <path id="Path_3016" data-name="Path 3016" d="M43.218,35.127a1.881,1.881,0,0,0-1.412.56,1.968,1.968,0,0,0-.537,1.421V56.753a1.955,1.955,0,0,0,.541,1.441,1.912,1.912,0,0,0,1.408.54,1.942,1.942,0,0,0,1.46-.545,1.989,1.989,0,0,0,.521-1.436V37.108a1.86,1.86,0,0,0-1.981-1.981" transform="translate(-15.752 -13.408)" fill="#343434"/>
    <path id="Path_3017" data-name="Path 3017" d="M73.87,35.692a1.792,1.792,0,0,0-1.368-.565,1.738,1.738,0,0,0-1.355.569,2.046,2.046,0,0,0-.5,1.412v14.7L58.608,35.9a1.775,1.775,0,0,0-1.539-.775,1.842,1.842,0,0,0-1.379.56,1.968,1.968,0,0,0-.537,1.421V56.753a2.033,2.033,0,0,0,.5,1.433,1.767,1.767,0,0,0,1.352.548,1.792,1.792,0,0,0,1.367-.565,2,2,0,0,0,.517-1.417V42.079L70.93,57.958a1.775,1.775,0,0,0,1.54.775,1.843,1.843,0,0,0,1.38-.561,1.966,1.966,0,0,0,.537-1.42V37.108A2.007,2.007,0,0,0,73.87,35.692Z" transform="translate(-21.052 -13.408)" fill="#343434"/>
    <path id="Path_3018" data-name="Path 3018" d="M95.737,35.127a1.881,1.881,0,0,0-1.412.56,1.968,1.968,0,0,0-.537,1.421V56.753a1.955,1.955,0,0,0,.541,1.441,1.912,1.912,0,0,0,1.408.54,1.942,1.942,0,0,0,1.46-.545,1.989,1.989,0,0,0,.521-1.436V37.108a1.86,1.86,0,0,0-1.981-1.981" transform="translate(-35.799 -13.408)" fill="#343434"/>
    <path id="Path_3019" data-name="Path 3019" d="M119.535,46.616a33.01,33.01,0,0,0-4.623-1.347,13.073,13.073,0,0,1-3.827-1.39,2.284,2.284,0,0,1-1.08-2.071,2.976,2.976,0,0,1,1.256-2.565,6.161,6.161,0,0,1,3.675-.953,8.522,8.522,0,0,1,3.024.478,11.307,11.307,0,0,1,2.723,1.594c1.045.68,1.725.6,2.258-.065a1.8,1.8,0,0,0,.406-1.159,1.967,1.967,0,0,0-.742-1.545,9.208,9.208,0,0,0-3.392-1.964,13.6,13.6,0,0,0-4.31-.659,11.168,11.168,0,0,0-4.53.878,7.41,7.41,0,0,0-3.134,2.484A6.23,6.23,0,0,0,106.107,42a5.445,5.445,0,0,0,1.046,3.42,6.932,6.932,0,0,0,2.839,2.105,25.214,25.214,0,0,0,4.49,1.336,16.711,16.711,0,0,1,4.035,1.32,1.976,1.976,0,0,1,1.126,1.851,2.85,2.85,0,0,1-1.251,2.512,6.6,6.6,0,0,1-3.777.909,10.43,10.43,0,0,1-6.358-2.073c-1.016-.658-1.747-.608-2.275.051a1.83,1.83,0,0,0-.389,1.174,1.942,1.942,0,0,0,.713,1.548,9.542,9.542,0,0,0,3.637,1.931h0a16.17,16.17,0,0,0,4.736.688,11.834,11.834,0,0,0,4.606-.844,7.269,7.269,0,0,0,3.153-2.419,6.034,6.034,0,0,0,1.136-3.6,4.886,4.886,0,0,0-1.12-3.3,7.377,7.377,0,0,0-2.918-1.982" transform="translate(-40.305 -13.348)" fill="#343434"/>
    <path id="Path_3020" data-name="Path 3020" d="M159.584,35.688h0a2.058,2.058,0,0,0-2.823,0,1.964,1.964,0,0,0-.538,1.42v7.986H144.174V37.108a1.973,1.973,0,0,0-.537-1.421,2.058,2.058,0,0,0-2.823,0,1.964,1.964,0,0,0-.538,1.42V56.753a1.954,1.954,0,0,0,.541,1.441,1.914,1.914,0,0,0,1.409.54,1.887,1.887,0,0,0,1.412-.56,1.969,1.969,0,0,0,.537-1.421V48.414h12.049v8.339a1.954,1.954,0,0,0,.541,1.441,1.914,1.914,0,0,0,1.408.54,1.887,1.887,0,0,0,1.412-.56,1.969,1.969,0,0,0,.537-1.421V37.108a1.97,1.97,0,0,0-.537-1.42" transform="translate(-53.543 -13.408)" fill="#343434"/>
    <path id="Path_3021" data-name="Path 3021" d="M105.947,9.53C77.2-3.212,50.325-3.175,28.223,9.636l-.239.16c-12.04,9.314-15.832,19.449-16.849,26.519L3.806,22.768,0,24.827,11.423,45.946l4.015-1.5c-.148-.678-3.419-16.751,15.08-31.136,13.705-7.906,29.422-10.584,46.613-8a106.5,106.5,0,0,1,27.062,8.175Z" transform="translate(0 0)" fill="#343434"/>
  </g>
</svg>
