<?xml version="1.0" encoding="UTF-8"?>
<svg id="Layer_2" data-name="Layer 2" xmlns="http://www.w3.org/2000/svg" viewBox="0 0 496.9 199">
  <defs>
    <style>
      .cls-1 {
        fill: #07c6f6;
      }
    </style>
  </defs>
  <g id="Layer_1-2" data-name="Layer 1">
    <g>
      <path class="cls-1" d="m388.5,199c-.23-.24-.42-.6-.7-.68-.59-.17-1.22-.21-1.84-.28-1.62-.19-3.38-.05-4.84-.65-1.66-.68-3.38-.31-5-.91-1.67-.62-3.49-.84-5.11-1.53-2.12-.91-4.19-1.98-6.14-3.21-6.2-3.92-10.47-9.41-12.21-16.55-.92-3.78-1.38-7.67-.99-11.68.55-5.69,1.73-11.21,3.36-16.64.82-2.72,1.76-5.4,2.82-8.04,1.08-2.68,2.37-5.27,3.55-7.91.78-1.73,1.45-3.52,2.32-5.2,4.61-8.97,10.08-17.39,16.71-25,4.6-5.28,9.59-10.19,15.05-14.59,2.14-1.72,4.22-3.54,6.47-5.11,1.8-1.26,3.86-2.16,5.72-3.35,1.03-.66,1.9-1.58,2.85-2.38.28-.24.54-.62.85-.68,2.07-.34,3.67-1.67,5.51-2.5,3.33-1.5,6.63-3.14,10.08-4.33,4.4-1.51,8.89-2.8,13.41-3.84,3.37-.77,6.85-1.05,10.3-1.45,2.25-.26,4.52-.48,6.79-.48,2.6,0,5.2.24,7.79.46,1.95.17,3.91.38,5.84.73,5.31.97,10.43,2.43,14.93,5.62,5.81,4.12,9.38,9.63,10.41,16.63.47,3.23.61,6.49.32,9.84-.37,4.33-1.06,8.57-2.47,12.6-1.99,5.68-4.17,11.33-6.74,16.76-3.2,6.76-6.91,13.28-10.36,19.92-.54,1.04-1.38,1.14-2.38,1.14-14.58-.01-29.17,0-43.75-.01-8.79,0-17.58-.01-26.37-.02-1.89,0-1.96-.02-2.3,1.79-.33,1.74-.86,3.59-.59,5.27.31,1.92,1.35,3.73,2.94,5.08,2.16,1.83,4.74,2.69,7.41,3.41,4.93,1.32,9.95,1.06,14.95.98,7.98-.13,15.82-1.33,23.52-3.43,3.73-1.02,7.44-2.09,11.17-3.08.81-.21,1.32-1.19,2.4-.77.62.24,1,.25.71,1.11-1.89,5.74-3.69,11.51-5.56,17.27-1.02,3.15-2.12,6.28-3.15,9.42-.64,1.96-1.3,3.93-1.8,5.93-.26,1.03-.76,1.56-1.74,1.82-4.67,1.23-9.34,2.48-14.01,3.76-1.4.38-2.75.94-4.16,1.27-1.09.26-2.24.26-3.35.43-1.88.29-3.75.64-5.64.93-.52.08-1.07.05-1.6.04-.15,0-.33-.18-.44-.13-2.65,1.13-5.46,1.04-8.25,1.26-.83.07-1.62.6-2.43.92h-24.25Zm27.67-84.51c.84.13,1.27.26,1.69.25,2.07-.06,4.13-.21,6.2-.22,6.78-.02,13.57.03,20.35-.02.53,0,1.38-.39,1.54-.81.98-2.58,2.08-5.17,2.62-7.86.83-4.16-.13-7.82-5.36-8.59-2.36-.35-4.84.01-7.25.17-2.69.18-5.07,1.38-7.38,2.65-3.1,1.7-5.42,4.27-7.48,7.07-1.68,2.29-3.18,4.72-4.93,7.34Z"/>
      <path class="cls-1" d="m0,194.25c.08.14.15.29.32.59.82-1.59,1.85-2.96,2-4.73.01-.12.05-.27.13-.34,1.21-1.11,1.24-2.7,1.74-4.11.37-1.05,1.2-1.93,1.69-2.95.74-1.53,1.6-3.07,1.96-4.7.4-1.79,1.79-2.99,2.24-4.69.48-1.83,1.63-3.38,2.07-5.27.31-1.33,1.39-2.47,1.9-3.78.7-1.78,1.68-3.43,2.11-5.36.31-1.38,1.32-2.59,1.99-3.89.17-.33.18-.73.33-1.08.41-.93.94-1.82,1.26-2.78.64-1.9,1.84-3.5,2.65-5.29.8-1.76,1.24-3.69,1.96-5.49.43-1.08,1.14-2.04,1.65-3.1.72-1.51,1.62-3,1.98-4.6.36-1.6,1.61-2.66,2-4.19.51-2.04,1.92-3.7,2.25-5.88.19-1.27,1.34-2.36,1.92-3.6.72-1.55,1.29-3.18,1.95-4.76.26-.62.65-1.18.92-1.8.49-1.14.9-2.31,1.41-3.44,1.2-2.65,2.45-5.28,3.66-7.93.26-.56.3-1.27.68-1.71,1.04-1.21,1.22-2.78,1.94-4.13.75-1.4,1.29-2.92,1.96-4.38,1.23-2.67,2.54-5.31,3.73-8,2.21-5.01,4.35-10.05,6.55-15.07,3.84-8.72,7.71-17.42,11.55-26.13,3.27-7.42,6.54-14.84,9.77-22.28.37-.85.96-1.03,1.77-1.03,9.62.03,19.25.05,28.87.06,5.92,0,11.83-.02,17.75-.02.2,0,.39.07.87.16-2.25,5.1-4.43,10.11-6.67,15.1-2.26,5.03-4.65,10.01-6.86,15.07-2.09,4.79-4.07,9.64-6.27,14.38-2.26,4.85-4.21,9.84-6.46,14.69-2.33,5.01-4.53,10.08-6.78,15.13-2.17,4.89-4.33,9.78-6.5,14.67-2.18,4.91-4.37,9.81-6.54,14.73-2.17,4.91-4.32,9.84-6.5,14.74-2.18,4.91-4.39,9.8-6.67,14.9h48.88c-.57.94-1.02,1.58-1.36,2.26-.48.97-.86,1.98-1.32,2.97-.59,1.28-1.25,2.52-1.79,3.82-.36.85-.39,1.87-.86,2.63-1.02,1.65-1.49,3.52-2.33,5.23-.97,1.98-1.99,3.93-2.92,5.93-.38.81-.5,1.73-.85,2.56-.25.58-.75,1.06-1.02,1.64-.25.53-.25,1.18-.5,1.71-1.11,2.38-2.3,4.71-3.38,7.1-.62,1.36-1.06,2.8-1.6,4.19-.39.99-.73,2.02-1.24,2.94-.24.42-.82.83-1.3.89-1.11.13-2.24.05-3.37.05-29.5,0-58.99,0-88.49,0-1.61,0-3.22.06-4.84.09,0-.58,0-1.17,0-1.75Z"/>
      <path class="cls-1" d="m232.75,0c.6.42,1.14,1.02,1.8,1.23,5.87,1.85,9.26,5.93,10.68,11.78.35,1.42.66,2.9.64,4.34-.02,1.49-.36,3.01-.74,4.46-1.69,6.48-4.81,12.19-9.43,17.06-1.35,1.42-2.74,2.79-4.13,4.16-1.01,1-1.97,2.07-3.09,2.93-.95.73-2.11,1.15-3.14,1.79-.53.33-.96.82-1.43,1.23-.12.1-.28.32-.35.29-1.5-.49-1.87,1.2-3.02,1.54-3.7,1.09-7.27,2.73-11.01,3.59-3.03.7-6.26.94-9.37.76-5.62-.32-10.55-2.4-13.8-7.31-3.21-4.84-3.66-10.12-1.99-15.6,2.72-8.96,8.15-15.99,15.44-21.73,3.17-2.5,6.54-4.72,10.14-6.47,2.65-1.29,5.61-1.94,8.42-2.92.82-.29,1.59-.76,2.38-1.15,4,0,8,0,12,0Z"/>
      <path class="cls-1" d="m323.23,4.08c-16.29,36.67-32.52,73.21-48.75,109.76.07.06.14.12.22.18.29-.19.61-.34.85-.58,2.29-2.22,4.6-4.43,6.82-6.71,4.21-4.31,8.37-8.68,12.56-13.01,3.16-3.26,6.36-6.48,9.51-9.76,1.92-2,3.76-4.08,5.68-6.08,2.04-2.11,4.13-4.17,6.2-6.25,2.08-2.08,4.16-4.16,6.28-6.21.21-.21.7-.17,1.06-.18,17.03-.07,34.06-.13,51.09-.2,1.83,0,3.67-.04,5.5-.04.29,0,.58.16.88.25-.17.24-.3.51-.51.71-4.65,4.28-9.29,8.56-13.97,12.81-3.29,2.99-6.62,5.92-9.94,8.87-3.22,2.85-6.48,5.65-9.66,8.55-3.72,3.39-7.34,6.9-11.06,10.3-3.52,3.21-7.14,6.32-10.68,9.51-3.27,2.94-6.52,5.91-9.69,8.95-.37.36-.37,1.3-.28,1.93.6,4.17,1.26,8.33,1.92,12.49.51,3.24,1.06,6.47,1.57,9.71.28,1.79.48,3.59.76,5.39.53,3.38,1.07,6.77,1.66,10.14.26,1.48.71,2.93.93,4.42.21,1.36.15,2.76.36,4.12.31,2.02.76,4.03,1.15,6.04,0,.04.03.09.02.12-.69,2.34.85,4.41.81,6.68-.03,1.95.61,3.79,1.15,5.66.34,1.18.26,2.48.29,3.72,0,.18-.47.5-.74.53-.7.06-1.41-.02-2.12-.02-18.21,0-36.41.01-54.62.02-.44,0-.89,0-1.35,0-.13-1.52-.3-2.87-.35-4.23-.12-3.27-.17-6.55-.27-9.83-.15-5.05-.31-10.11-.5-15.16-.14-3.99-.36-7.98-.49-11.97-.2-5.89-.35-11.78-.53-17.67-.01-.36-.05-.71-.35-1.15-.49,1.05-1,2.09-1.46,3.15-1.89,4.34-3.74,8.7-5.66,13.03-5.84,13.2-11.69,26.39-17.54,39.58-.47,1.06-.96,2.12-1.42,3.19-.33.77-.84,1.12-1.73,1.11-14.87-.05-29.75-.07-44.62-.1-.57,0-1.14,0-1.88,0,.37-.89.68-1.67,1.02-2.43,5.48-12.31,10.98-24.61,16.46-36.93,5.86-13.17,11.7-26.34,17.55-39.51,7.25-16.35,14.5-32.71,21.75-49.06,2.92-6.57,5.85-13.14,8.78-19.7,2.27-5.1,4.56-10.2,6.8-15.32,1.44-3.28,2.79-6.61,4.23-9.89.87-1.97,1.91-3.87,2.75-5.85.92-2.18,1.62-4.46,2.57-6.64.9-2.06,1.97-4.05,3.04-6.03.16-.29.75-.47,1.16-.49,1.33-.06,2.67-.02,4-.02,13.92,0,27.83,0,41.75,0,.28,0,.56.04,1.08.08Z"/>
      <path class="cls-1" d="m221.92,65.12c-.71,1.62-1.36,3.13-2.03,4.64-2.57,5.77-5.14,11.54-7.71,17.31-3.99,8.98-7.98,17.96-11.96,26.94-2.66,6-5.32,11.99-7.99,17.99-1.33,2.99-2.65,5.97-3.98,8.95-1.33,2.98-2.59,6-4,8.94-1.39,2.89-2.56,5.87-3.87,8.79-1.36,3.02-2.61,6.09-4.06,9.06-1.43,2.92-2.54,5.98-3.93,8.91-1.43,3.02-2.6,6.15-4.1,9.13-.83,1.65-1.35,3.43-2.22,5.06-.51.96-.66,2.11-1.14,3.1-.79,1.63-1.09,2.03-2.81,2.03-15.12-.05-30.25-.02-45.37-.02-.12,0-.25-.02-.54-.05.09-.36.12-.71.26-1.02,5.08-11.4,10.18-22.78,15.23-34.19,1.24-2.8,2.18-5.73,3.4-8.54.97-2.22,2.27-4.3,3.27-6.52,3.44-7.62,6.82-15.26,10.2-22.91,1.61-3.65,3.09-7.37,4.71-11.01,5.44-12.18,10.94-24.34,16.4-36.52,1.41-3.15,2.77-6.33,4.2-9.47.14-.32.62-.69.94-.69,15.5-.03,31-.03,46.49-.02.12,0,.24.04.6.1Z"/>
    </g>
  </g>
</svg>